<svg width="21" height="20" viewBox="0 0 21 20" fill="none" xmlns="http://www.w3.org/2000/svg" style=""> 
<path d="M14.95 4.28086C13.6223 3.13359 11.8906 2.4375 10 2.4375C5.82344 2.4375 2.4375 5.82344 2.4375 10C2.4375 14.1766 5.82344 17.5625 10 17.5625C11.7059 17.5625 13.2742 16.9996 14.5375 16.05C14.993 15.7062 15.6375 15.8008 15.9812 16.2563C16.325 16.7117 16.2305 17.3563 15.775 17.7C14.168 18.9074 12.1656 19.625 10 19.625C4.68477 19.625 0.375 15.3152 0.375 10C0.375 4.68477 4.68477 0.375 10 0.375C12.4621 0.375 14.7094 1.29883 16.4109 2.81992L17.7215 1.50508C18.0051 1.22148 18.3918 1.0625 18.7957 1.0625C19.6336 1.0625 20.3125 1.74141 20.3125 2.5793V7.59375C20.3125 8.16523 19.8527 8.625 19.2812 8.625H14.2668C13.4289 8.625 12.75 7.94609 12.75 7.1082C12.75 6.7043 12.909 6.32188 13.1926 6.03398L14.9457 4.28086H14.95ZM18.25 3.89414L15.5816 6.5625H18.25V3.89414Z" fill="#000000s"></path></svg>