<svg width="15px" height="20px" viewBox="0 0 15 20" xmlns="http://www.w3.org/2000/svg" xmlns:xlink="http://www.w3.org/1999/xlink"><g id="Page-1" stroke="none" stroke-width="1" fill="none" fill-rule="evenodd"><g id="Desktop-HD" transform="translate(-1173.000000, -175.000000)" fill="currentColor" fill-rule="nonzero"><g id="noun_Lock_287787" transform="translate(1173.000000, 175.000000)"><path d="M13.5385725,8.64000069 L12.4971439,8.64000069 L12.4971439,5.40000043 C12.4971439,2.41812019 10.1653851,-1.15107932e-14 7.29000058,-1.15107932e-14 C4.41461607,-1.15107932e-14 2.08285731,2.41812019 2.08285731,5.40000043 L2.08285731,8.64000069 L1.04142865,8.64000069 C0.468642894,8.64000069 0,9.12600073 0,9.72000077 L0,18.3600015 C0,18.9540015 0.468642894,19.4400015 1.04142865,19.4400015 L13.5385725,19.4400015 C14.1113583,19.4400015 14.5800012,18.9540015 14.5800012,18.3600015 L14.5800012,9.72000077 C14.5800012,9.12600073 14.1113583,8.64000069 13.5385725,8.64000069 Z M4.16571462,8.64000069 L4.16571462,5.40000043 C4.16571462,3.61044029 5.5643533,2.16000017 7.29000058,2.16000017 C9.01564786,2.16000017 10.4142865,3.61044029 10.4142865,5.40000043 L10.4142865,8.64000069 L4.16571462,8.64000069 Z" id="Shape"></path></g></g></g></svg>