<svg width="15px" height="20px" viewBox="0 0 15 20" xmlns="http://www.w3.org/2000/svg" xmlns:xlink="http://www.w3.org/1999/xlink"><g id="Page-1" stroke="none" stroke-width="1" fill="none" fill-rule="evenodd"><g id="Desktop-HD" transform="translate(-1173.000000, -175.000000)" fill="currentColor" fill-rule="nonzero"><g id="noun_Lock_287787" transform="translate(1173.000000, 175.000000)"><path fill="currentColor" d="M13.5,8.6h-1V5.4c0-3-2.3-5.4-5.2-5.4C4.4,0,2.1,2.4,2.1,5.4v1.3h2.1V5.4c0-1.8,1.4-3.2,3.1-3.2 s3.1,1.5,3.1,3.2v3.2H6.5H4.2H2.1H1c-0.6,0-1,0.5-1,1.1v8.6c0,0.6,0.5,1.1,1,1.1h12.5c0.6,0,1-0.5,1-1.1V9.7 C14.6,9.1,14.1,8.6,13.5,8.6z"></path></g></g></g></svg>